<svg width="800" height="800" viewBox="0 0 800 800" fill="none" xmlns="http://www.w3.org/2000/svg">
<rect x="72" y="144" width="656" height="584" rx="88" fill="#CFD8DC"/>
<rect x="72" y="144" width="656" height="144" rx="72" fill="#F44336"/>
<rect x="208" y="352" width="80" height="80" rx="8" fill="#90A4AE"/>
<rect x="336" y="352" width="80" height="80" rx="8" fill="#90A4AE"/>
<rect x="464" y="352" width="80" height="80" rx="8" fill="#90A4AE"/>
<rect x="592" y="352" width="80" height="80" rx="8" fill="#90A4AE"/>
<rect x="208" y="464" width="80" height="80" rx="8" fill="#90A4AE"/>
<rect x="336" y="464" width="80" height="80" rx="8" fill="#90A4AE"/>
<rect x="464" y="464" width="80" height="80" rx="8" fill="#90A4AE"/>
<rect x="592" y="464" width="80" height="80" rx="8" fill="#90A4AE"/>
<rect x="208" y="576" width="80" height="80" rx="8" fill="#90A4AE"/>
<rect x="336" y="576" width="80" height="80" rx="8" fill="#90A4AE"/>
<rect x="464" y="576" width="80" height="80" rx="8" fill="#90A4AE"/>
<rect x="592" y="576" width="80" height="80" rx="8" fill="#90A4AE"/>
<rect x="176" y="72" width="96" height="192" rx="48" fill="#B0BEC5"/>
<rect x="528" y="72" width="96" height="192" rx="48" fill="#B0BEC5"/>
<ellipse cx="224" cy="168" rx="48" ry="48" fill="#B0BEC5"/>
<ellipse cx="576" cy="168" rx="48" ry="48" fill="#B0BEC5"/>
<ellipse cx="224" cy="168" rx="32" ry="32" fill="#B0BEC5"/>
<ellipse cx="576" cy="168" rx="32" ry="32" fill="#B0BEC5"/>
<ellipse cx="224" cy="168" rx="24" ry="24" fill="#B0BEC5"/>
<ellipse cx="576" cy="168" rx="24" ry="24" fill="#B0BEC5"/>
</svg>